<svg xmlns="http://www.w3.org/2000/svg" data-name="Layer 1" viewBox="0 0 512 512"><path fill="#fdc75b" d="M463.49,193.35A216.652,216.652,0,0,1,472.68,256c0,119.67-97.01,216.68-216.68,216.68S39.32,375.67,39.32,256,136.33,39.32,256,39.32q4.215,0,8.4.15-.285,3.18-.28,6.42a72.28,72.28,0,0,0,121.33,53.1,71.536,71.536,0,0,0,67.47,95.15A69.583,69.583,0,0,0,463.49,193.35ZM384.67,288a27.335,27.335,0,1,0-27.34,27.33A27.331,27.331,0,0,0,384.67,288Zm-104-117a27.335,27.335,0,1,0-27.34,27.33A27.331,27.331,0,0,0,280.67,171Zm-9,236a27.335,27.335,0,1,0-27.34,27.33A27.331,27.331,0,0,0,271.67,407Zm-55-118a27.335,27.335,0,1,0-27.34,27.33A27.331,27.331,0,0,0,216.67,289Zm-71-111a27.335,27.335,0,1,0-27.34,27.33A27.331,27.331,0,0,0,145.67,178Z"/><path fill="#ed664c" d="M357.33 260.67A27.33 27.33 0 1 1 330 288 27.331 27.331 0 0 1 357.33 260.67zM253.33 143.67A27.33 27.33 0 1 1 226 171 27.331 27.331 0 0 1 253.33 143.67zM244.33 379.67A27.33 27.33 0 1 1 217 407 27.331 27.331 0 0 1 244.33 379.67zM189.33 261.67A27.33 27.33 0 1 1 162 289 27.331 27.331 0 0 1 189.33 261.67zM118.33 150.67A27.33 27.33 0 1 1 91 178 27.331 27.331 0 0 1 118.33 150.67z"/><path d="M462.276,185.443a61.948,61.948,0,0,1-9.356.7A63.535,63.535,0,0,1,393,101.639a8,8,0,0,0-12.98-8.523A64.28,64.28,0,0,1,272.12,45.89c0-1.951.084-3.87.248-5.706a8,8,0,0,0-7.681-8.708c-2.877-.1-5.8-.156-8.687-.156A224.68,224.68,0,0,0,97.127,414.873,224.763,224.763,0,0,0,471.149,191.041,8,8,0,0,0,462.276,185.443ZM256,464.68c-115.066,0-208.68-93.774-208.68-208.84S140.934,47,256,47h.133a80.435,80.435,0,0,0,117.5,69.964c-.13,1.863-.195,3.776-.195,5.656a79.588,79.588,0,0,0,79.48,79.5c1.58,0,3.153-.036,4.713-.128a209.2,209.2,0,0,1,7.047,54C464.68,371.061,371.066,464.68,256,464.68Z"/><path d="M118.33 142.67A35.33 35.33 0 1 0 153.67 178 35.37 35.37 0 0 0 118.33 142.67zm0 54.66A19.33 19.33 0 1 1 137.67 178 19.351 19.351 0 0 1 118.33 197.33zM357.33 252.67A35.33 35.33 0 1 0 392.67 288 35.37 35.37 0 0 0 357.33 252.67zm0 54.66A19.33 19.33 0 1 1 376.67 288 19.351 19.351 0 0 1 357.33 307.33zM244.33 371.67A35.33 35.33 0 1 0 279.67 407 35.37 35.37 0 0 0 244.33 371.67zm0 54.66A19.33 19.33 0 1 1 263.67 407 19.351 19.351 0 0 1 244.33 426.33zM253.33 135.67A35.33 35.33 0 1 0 288.67 171 35.37 35.37 0 0 0 253.33 135.67zm0 54.66A19.33 19.33 0 1 1 272.67 171 19.351 19.351 0 0 1 253.33 190.33zM224.67 289a35.335 35.335 0 1 0-35.34 35.33A35.375 35.375 0 0 0 224.67 289zm-35.34 19.33A19.33 19.33 0 1 1 208.67 289 19.351 19.351 0 0 1 189.33 308.33z"/></svg>