<svg xmlns="http://www.w3.org/2000/svg" enable-background="new 0 0 512 512" viewBox="0 0 512 512"><path fill="#3b4552" fill-rule="evenodd" d="M350.7,161.3C326.5,137,293,122,256,122c-37,0-70.5,15-94.7,39.2C137,185.5,122,219,122,256
			c0,37,15,70.5,39.2,94.7C185.5,375,219,390,256,390c37,0,70.5-15,94.7-39.2C375,326.5,390,293,390,256
			C390,219,375,185.5,350.7,161.3L350.7,161.3z M300.8,58.5c19.1,4.3,37.1,11.3,53.7,20.6c5.9,3.3,13.2,2.7,18.5-1.4l20.9-16.4
			c6.7-5.3,16.3-4.7,22.3,1.3l33.2,33.2c6,6,6.6,15.6,1.3,22.3L434.4,139c-4.2,5.3-4.7,12.6-1.4,18.5c7.5,13.5,13.5,27.9,17.8,43
			c1.8,6.5,7.4,11.3,14.1,12.1l26.3,3.2c8.5,1,14.8,8.2,14.8,16.7v47c0,8.5-6.4,15.7-14.8,16.7l-26.3,3.2
			c-6.7,0.8-12.3,5.6-14.1,12.1c-4.3,15.1-10.3,29.5-17.8,43c-3.3,5.9-2.7,13.2,1.4,18.5l16.4,20.9c5.3,6.7,4.7,16.3-1.3,22.3
			l-33.2,33.2c-6,6-15.6,6.6-22.3,1.3L373,434.4c-5.3-4.2-12.6-4.7-18.5-1.4c-13.5,7.5-27.9,13.5-43,17.8
			c-6.5,1.8-11.3,7.4-12.1,14.1l-3.2,26.3c-1,8.5-8.2,14.8-16.7,14.8h-47c-8.5,0-15.7-6.4-16.7-14.8l-3.2-26.3
			c-0.8-6.7-5.6-12.3-12.1-14.1c-15.1-4.3-29.5-10.3-43-17.8c-5.9-3.3-13.2-2.7-18.5,1.4l-20.9,16.4c-6.7,5.3-16.3,4.7-22.3-1.3
			l-33.2-33.2c-6-6-6.6-15.6-1.3-22.3L77.6,373c4.2-5.3,4.7-12.6,1.4-18.5c-7.5-13.5-13.5-27.9-17.8-43c-1.8-6.5-7.4-11.3-14.1-12.1
			l-26.3-3.2C12.4,295.2,6,288,6,279.5v-47c0-8.5,6.4-15.7,14.8-16.7l26.3-3.2c6.7-0.8,12.3-5.6,14.1-12.1
			c4.3-15.1,10.3-29.5,17.8-43c3.3-5.9,2.7-13.2-1.4-18.5l-16.4-20.9c-5.3-6.7-4.7-16.3,1.3-22.3l33.2-33.2c6-6,15.6-6.6,22.3-1.3
			L139,77.6c5.3,4.2,12.6,4.7,18.5,1.4c13.5-7.5,27.9-13.5,43-17.8c6.5-1.8,11.3-7.4,12.1-14.1l3.2-26.3c1-8.5,8.2-14.8,16.7-14.8
			h47c8.5,0,15.7,6.4,16.7,14.8L300.8,58.5L300.8,58.5z" clip-rule="evenodd"/><circle cx="256" cy="256.7" r="63.6" fill="#3b4552" fill-rule="evenodd" clip-rule="evenodd"/></svg>